<?xml version="1.0" encoding="UTF-8"?> <svg xmlns="http://www.w3.org/2000/svg" width="60" height="60" viewBox="0 0 60 60" fill="none"><rect width="60" height="60" rx="30" fill="#F6F6F6"></rect><path d="M42.3169 19.1919C42.561 18.9479 42.561 18.5521 42.3169 18.3081C42.0729 18.064 41.6771 18.064 41.4331 18.3081L39.4721 20.269L38.645 19.0283C38.4536 18.7411 38.0655 18.6635 37.7783 18.855C37.4911 19.0464 37.4135 19.4345 37.605 19.7217L38.855 21.5967C38.9588 21.7525 39.1271 21.8535 39.3134 21.872C39.4997 21.8904 39.6845 21.8243 39.8169 21.6919L42.3169 19.1919Z" fill="#373839"></path><path fill-rule="evenodd" clip-rule="evenodd" d="M35.6689 17.5C36.5334 16.0055 38.1493 15 40 15C42.7614 15 45 17.2386 45 20C45 21.0697 44.6641 22.061 44.0919 22.8741L44.984 26.7343C44.9946 26.7804 45 26.8276 45 26.875V27.5C45 27.5149 44.9995 27.5297 44.9984 27.5445L44.375 27.5C44.9984 27.5445 44.9984 27.5445 44.9984 27.5445L44.9982 27.5472L44.9979 27.5514L44.9968 27.5646L44.9928 27.6091C44.9892 27.6466 44.9836 27.6995 44.9753 27.7655C44.9589 27.8974 44.9316 28.0828 44.8882 28.3041C44.8018 28.7438 44.6485 29.3392 44.3793 29.9423C44.0246 30.7369 43.4367 31.6012 42.5 32.0941V44.375C42.5 44.7202 42.2202 45 41.875 45H18.125C17.7798 45 17.5 44.7202 17.5 44.375V32.0941C16.5633 31.6012 15.9754 30.7369 15.6207 29.9423C15.3515 29.3392 15.1982 28.7438 15.1118 28.3041C15.0684 28.0828 15.0411 27.8974 15.0247 27.7655C15.0164 27.6995 15.0108 27.6466 15.0072 27.6091L15.0032 27.5646L15.0021 27.5514L15.0018 27.5472L15.0017 27.5456C15.0017 27.5456 15.0016 27.5445 15.625 27.5L15.0017 27.5456C15.0006 27.5308 15 27.5149 15 27.5V26.875C15 26.8169 15.0081 26.7591 15.024 26.7033L17.524 17.9533C17.6007 17.685 17.8459 17.5 18.125 17.5H35.6689ZM40 16.25C37.9289 16.25 36.25 17.9289 36.25 20C36.25 22.0711 37.9289 23.75 40 23.75C42.0711 23.75 43.75 22.0711 43.75 20C43.75 17.9289 42.0711 16.25 40 16.25ZM35 20C35 19.5684 35.0547 19.1495 35.1575 18.75H30.625V26.25H36.5625V23.6309C35.6002 22.7196 35 21.4299 35 20ZM40 25C41.1522 25 42.2134 24.6103 43.0589 23.9555L43.5891 26.25H37.8125V24.4974C38.4732 24.8193 39.2155 25 40 25ZM41.25 32.4739C41.0998 32.491 40.9436 32.5 40.7812 32.5C38.9559 32.5 37.8728 31.7923 37.2614 31.0098L37.2458 30.9897C36.6584 31.807 35.5534 32.5 33.5938 32.5C31.6972 32.5 30.6011 31.8509 30 31.0682C29.3989 31.8509 28.3028 32.5 26.4062 32.5C24.4466 32.5 23.3416 31.8071 22.7542 30.9898L22.7386 31.0098C22.1272 31.7923 21.0441 32.5 19.2188 32.5C19.0564 32.5 18.9002 32.491 18.75 32.4739V43.75H26.25V35.625C26.25 35.2798 26.5298 35 26.875 35H33.125C33.4702 35 33.75 35.2798 33.75 35.625V43.75H41.25V32.4739ZM16.265 27.6105C16.2592 27.5637 16.2551 27.5264 16.2525 27.5H43.7475C43.7449 27.5264 43.7408 27.5637 43.735 27.6105C43.7216 27.7178 43.6987 27.8742 43.6616 28.0631C43.5869 28.4437 43.4569 28.942 43.2379 29.4327C42.7968 30.4207 42.0668 31.25 40.7812 31.25C39.3253 31.25 38.6116 30.7077 38.2464 30.2402C38.0541 29.9941 37.9421 29.7469 37.8787 29.5625C37.8471 29.4708 37.8283 29.3966 37.8179 29.3489C37.8127 29.3251 37.8096 29.3081 37.8081 29.2991L37.8071 29.2931C37.7637 28.9683 37.4763 28.7308 37.1487 28.7512C36.8214 28.7716 36.5659 29.0413 36.5625 29.3685L36.5623 29.3732C36.562 29.3809 36.561 29.3964 36.5587 29.4186C36.5542 29.4632 36.5444 29.5332 36.5235 29.62C36.4817 29.7947 36.3977 30.0279 36.2308 30.2602C35.9198 30.6929 35.2279 31.25 33.5938 31.25C31.9596 31.25 31.2677 30.6929 30.9567 30.2602C30.7898 30.0279 30.7058 29.7947 30.664 29.62C30.6431 29.5332 30.6333 29.4632 30.6288 29.4186C30.6265 29.3964 30.6255 29.3809 30.6252 29.3732L30.625 29.3685C30.6215 29.0263 30.343 28.75 30 28.75C29.657 28.75 29.3785 29.0263 29.375 29.3685L29.3748 29.3732C29.3745 29.3809 29.3735 29.3964 29.3712 29.4186C29.3667 29.4632 29.3569 29.5332 29.336 29.62C29.2942 29.7947 29.2102 30.0279 29.0433 30.2602C28.7323 30.6929 28.0404 31.25 26.4062 31.25C24.7721 31.25 24.0802 30.6929 23.7692 30.2602C23.6023 30.0279 23.5183 29.7947 23.4765 29.62C23.4556 29.5332 23.4458 29.4632 23.4413 29.4186C23.439 29.3964 23.438 29.3809 23.4377 29.3732L23.4375 29.3685C23.4341 29.0413 23.1786 28.7716 22.8513 28.7512C22.5237 28.7308 22.2364 28.9673 22.193 29.2921L22.1919 29.2991C22.1904 29.3081 22.1873 29.3251 22.1821 29.3489C22.1717 29.3966 22.1529 29.4708 22.1213 29.5625C22.0579 29.7469 21.9459 29.9941 21.7536 30.2402C21.3884 30.7077 20.6747 31.25 19.2188 31.25C17.9332 31.25 17.2032 30.4207 16.7621 29.4327C16.5431 28.942 16.4131 28.4437 16.3384 28.0631C16.3013 27.8742 16.2784 27.7178 16.265 27.6105ZM37.8076 29.2967C37.8076 29.2967 37.8077 29.2975 37.1875 29.375C36.5625 29.375 36.5623 29.3732 36.5623 29.3732L36.5625 29.375H37.1875L37.8076 29.2967ZM22.1875 26.25H16.4536L18.5964 18.75H22.1875V26.25ZM23.4375 26.25V18.75H29.375V26.25H23.4375ZM32.5 36.25V43.75H27.5V36.25H32.5Z" fill="#373839"></path><path d="M5.79102 10.3359V8.65625H7.27539C7.95247 8.65625 8.44727 8.49023 8.75977 8.1582C9.07227 7.82617 9.22852 7.3444 9.22852 6.71289C9.22852 6.07487 9.0625 5.58984 8.73047 5.25781C8.39844 4.91927 7.92643 4.75 7.31445 4.75C6.70898 4.75 6.22396 4.91602 5.85938 5.24805C5.49479 5.58008 5.3125 6.01628 5.3125 6.55664H3.26172L3.24219 6.49805C3.20964 5.51497 3.57422 4.69466 4.33594 4.03711C5.09766 3.37305 6.09049 3.04102 7.31445 3.04102C8.54492 3.04102 9.52799 3.36003 10.2637 3.99805C10.9993 4.62956 11.3672 5.52474 11.3672 6.68359C11.3672 7.25 11.1947 7.78711 10.8496 8.29492C10.5111 8.79622 10.0423 9.18685 9.44336 9.4668C10.153 9.71419 10.6803 10.0951 11.0254 10.6094C11.377 11.1237 11.5527 11.7324 11.5527 12.4355C11.5527 13.5944 11.1556 14.5124 10.3613 15.1895C9.57357 15.8665 8.55143 16.2051 7.29492 16.2051C6.04492 16.2051 5.02604 15.8828 4.23828 15.2383C3.45703 14.5938 3.08268 13.7279 3.11523 12.6406L3.13477 12.5918H5.19531C5.19531 13.1647 5.38411 13.627 5.76172 13.9785C6.14583 14.3236 6.66341 14.4961 7.31445 14.4961C7.96549 14.4961 8.47982 14.3203 8.85742 13.9688C9.23503 13.6107 9.42383 13.0866 9.42383 12.3965C9.42383 11.6999 9.24805 11.1823 8.89648 10.8438C8.55143 10.5052 8.01107 10.3359 7.27539 10.3359H5.79102Z" fill="#D12C2C"></path><path d="M16.0742 13.9492V16H13.9453V13.9492H16.0742Z" fill="#D12C2C"></path></svg> 