<?xml version="1.0" encoding="UTF-8"?> <svg xmlns="http://www.w3.org/2000/svg" width="60" height="60" viewBox="0 0 60 60" fill="none"><rect width="60" height="60" rx="30" fill="#F6F6F6"></rect><path fill-rule="evenodd" clip-rule="evenodd" d="M23.25 12C21.1789 12 19.5 13.6789 19.5 15.75V21.2463C19.4124 21.286 19.3157 21.3318 19.2115 21.3839C18.7519 21.6137 18.1374 21.9717 17.5199 22.4863C16.2793 23.5202 15 25.2142 15 27.75V42H14.25C13.8358 42 13.5 42.3358 13.5 42.75V47.25C13.5 47.6642 13.8358 48 14.25 48H29.25C29.6642 48 30 47.6642 30 47.25V42.75C30 42.3358 29.6642 42 29.25 42H16.5V27.75C16.5 25.7858 17.4707 24.4798 18.4801 23.6387C18.8331 23.3445 19.1876 23.1107 19.5 22.9309V27.75C19.5 28.1642 19.8358 28.5 20.25 28.5H21C21.1989 28.5 21.3897 28.421 21.5303 28.2803L25.0088 24.8019C25.4284 24.3822 26.1431 24.5509 26.3308 25.114C26.6838 26.1731 26.4443 27.3401 25.7026 28.1745L21.1894 33.2517C21.0674 33.389 21 33.5663 21 33.75V36.5461C20.9529 36.6185 20.8867 36.7117 20.8021 36.8118C20.6004 37.0506 20.3263 37.2901 19.9916 37.4129C19.8442 37.467 19.6815 37.5 19.5 37.5C19.0858 37.5 18.75 37.8358 18.75 38.25C18.75 38.6642 19.0858 39 19.5 39C19.5564 39 19.6121 38.9984 19.6671 38.9953C20.0167 39.8767 20.8771 40.5 21.883 40.5H32.25C34.3211 40.5 36 38.8211 36 36.75V33.75C36 33.3358 35.6642 33 35.25 33C34.8358 33 34.5 33.3358 34.5 33.75V36H22.5V34.0351L26.8237 29.171C27.9218 27.9356 28.2765 26.2077 27.7538 24.6396C27.2135 23.0187 25.1563 22.5331 23.9481 23.7412L21 26.6893V16.5H34.5V18.75C34.5 19.1642 34.8358 19.5 35.25 19.5C35.6642 19.5 36 19.1642 36 18.75V15.75C36 13.6789 34.3211 12 32.25 12H23.25ZM21.9479 37.7799C22.0316 37.6808 22.1039 37.5859 22.1649 37.5H34.372C34.0631 38.3739 33.2297 39 32.25 39H21.883C21.5435 39 21.2488 38.8084 21.101 38.5274C21.4661 38.2961 21.7472 38.0174 21.9479 37.7799ZM34.372 15H21.128C21.4369 14.1261 22.2703 13.5 23.25 13.5H32.25C33.2297 13.5 34.0631 14.1261 34.372 15ZM15 46.5V43.5H28.5V46.5H15Z" fill="#373839"></path><path d="M42.5217 24.5218V23.7391C42.5217 22.8747 41.821 22.1739 40.9565 22.1739H40.1739V21.3913H38.6087V22.1739H37.8261C36.9616 22.1739 36.2609 22.8747 36.2609 23.7391V25.3043C36.2609 26.1688 36.9616 26.8695 37.8261 26.8695H40.9565V28.4348H37.8261V27.6521H36.2609V28.4348C36.2609 29.2992 36.9616 30 37.8261 30H38.6087V30.7826H40.1739V30H40.9565C41.821 30 42.5217 29.2992 42.5217 28.4348V26.8696C42.5217 26.0051 41.821 25.3044 40.9565 25.3044H37.8261V23.7391H40.9565V24.5218H42.5217Z" fill="#373839"></path><path fill-rule="evenodd" clip-rule="evenodd" d="M39.3913 19.0435C35.5013 19.0435 32.3478 22.197 32.3478 26.087C32.3478 29.977 35.5013 33.1305 39.3913 33.1305C43.2813 33.1305 46.4347 29.977 46.4347 26.087C46.4305 22.1988 43.2795 19.0478 39.3913 19.0435ZM39.3913 31.5653C36.3657 31.5653 33.913 29.1126 33.913 26.087C33.913 23.0615 36.3657 20.6087 39.3913 20.6087C42.4169 20.6087 44.8696 23.0615 44.8696 26.087C44.8661 29.1111 42.4154 31.5618 39.3913 31.5653Z" fill="#373839"></path><path d="M11.8164 14.291V16.0098H3.32029V14.5449L7.49021 9.99414C8.16079 9.25846 8.62628 8.65299 8.8867 8.17773C9.14711 7.69596 9.27732 7.19466 9.27732 6.67383C9.27732 6.14648 9.10805 5.69401 8.76951 5.31641C8.43748 4.93229 7.98826 4.74023 7.42185 4.74023C6.68618 4.74023 6.13279 4.94857 5.7617 5.36523C5.39711 5.77539 5.21482 6.35807 5.21482 7.11328H3.14451L3.12498 7.06445C3.09894 5.89258 3.47654 4.92578 4.25779 4.16406C5.03904 3.40234 6.06769 3.02148 7.34373 3.02148C8.61977 3.02148 9.61586 3.35677 10.332 4.02734C11.0547 4.69792 11.416 5.58984 11.416 6.70312C11.416 7.39974 11.2239 8.07357 10.8398 8.72461C10.4622 9.36914 9.80792 10.2057 8.87693 11.2344L6.02537 14.2422L6.05467 14.291H11.8164Z" fill="#D12C2C"></path><path d="M16.0742 13.9492V16H13.9453V13.9492H16.0742Z" fill="#D12C2C"></path></svg> 